HIERARCHY
ROOT Hips
{
	OFFSET	0.00	0.00	0.00
	CHANNELS 6 Xposition Yposition Zposition Zrotation Xrotation Yrotation
	JOINT Spine
	{
		OFFSET	 0.00	0.01	 0.00
		CHANNELS 3 Zrotation Xrotation Yrotation
		JOINT Spine1
		{
			OFFSET	 0.00	 2.45913012437421	 0.00
			CHANNELS 3 Zrotation Xrotation Yrotation
            JOINT Neck
            {
                OFFSET	 0.00	 2.48462964506057	 0.00
                CHANNELS 3 Zrotation Xrotation Yrotation
                JOINT Head
                {
                    OFFSET	 0.00	 0.927524780924562	 0.00
                    CHANNELS 3 Zrotation Xrotation Yrotation
                    End Site 
                    {
                        OFFSET	 0.00	 1.14999962169752	 0.00
                    }
                }
            }
			JOINT LeftShoulder
			{
				OFFSET	 0.00	 2.48462964506057	 0.00
				CHANNELS 3 Zrotation Xrotation Yrotation
				JOINT LeftUpArm
				{
					OFFSET	 0.00	 1.24881979654096	 0.00
					CHANNELS 3 Zrotation Xrotation Yrotation
					JOINT LeftForeArm
					{
						OFFSET	 0.00	2.59758046908119	 0.00
						CHANNELS 3 Zrotation Xrotation Yrotation
						JOINT LeftHand
						{
							OFFSET	 0.00	2.45542024364365	 0.00
							CHANNELS 3 Zrotation Xrotation Yrotation
							JOINT LeftHandThumb 
							{
								OFFSET	 0.00	0.00	 0.00
								CHANNELS 3 Zrotation Xrotation Yrotation
								End Site
								{
									OFFSET	 0.00	0.00	1.00000003353624
								}
							}
							JOINT L_Wrist_End 
							{
								OFFSET	 0.00	0.99999967115358	 0.00
								CHANNELS 3 Zrotation Xrotation Yrotation
								End Site 
								{
									OFFSET	 0.00	 0.00	 0.00
								}
							}
						}
					}
				}
			}
			JOINT RightShoulder
			{
				OFFSET	 0.00	 2.48462964506057	 0.00
				CHANNELS 3 Zrotation Xrotation Yrotation
				JOINT RightUpArm
				{
					OFFSET	 0.00	 1.24881979654096	 0.00
					CHANNELS 3 Zrotation Xrotation Yrotation
					JOINT RightForeArm
					{
						OFFSET	 0.00	2.59758046908119	 0.00
						CHANNELS 3 Zrotation Xrotation Yrotation
						JOINT RightHand
						{
							OFFSET	 0.00	2.45542024364365	 0.00
							CHANNELS 3 Zrotation Xrotation Yrotation
							JOINT RightHandThumb 
							{
								OFFSET	 0.00	0.00	 0.00
								CHANNELS 3 Zrotation Xrotation Yrotation
								End Site
								{
									OFFSET	 0.00	0.00	1.00000003353624
								}
							}
							JOINT R_Wrist_End 
							{
								OFFSET	 0.00	0.99999967115358	 0.00
								CHANNELS 3 Zrotation Xrotation Yrotation
								End Site 
								{
									OFFSET	 0.00	 0.00	 0.00
								}
							}
						}
					}
				}
			}
		}
	}
	JOINT LeftUpLeg
	{
		OFFSET	 1.2719394002717	 0.00	 0.00
		CHANNELS 3 Zrotation Xrotation Yrotation
		JOINT LeftLowLeg
		{
			OFFSET	 0.00	-4.3429100912261	 0.00
			CHANNELS 3 Zrotation Xrotation Yrotation
			JOINT LeftFoot
			{
				OFFSET	 0.00	-4.48767017425826	 0.00
				CHANNELS 3 Zrotation Xrotation Yrotation
				JOINT LeftToeBase
                {
                    OFFSET	 0.00	0.00	 1.51507020887566
                    CHANNELS 3 Zrotation Xrotation Yrotation
                    End Site 
                    {
                        OFFSET	 0.00	0.00	 0.75000010571191
                    }
                }
			}
		}
	}
	JOINT RightUpLeg
	{
		OFFSET	 -1.2719393604653	 0.00	 0.00
		CHANNELS 3 Zrotation Xrotation Yrotation
		JOINT RightLowLeg
		{
			OFFSET	 0.00	-4.3429100912261	 0.00
			CHANNELS 3 Zrotation Xrotation Yrotation
			JOINT RightFoot
			{
				OFFSET	 0.00	-4.48767017425826	 0.00
				CHANNELS 3 Zrotation Xrotation Yrotation
				JOINT RightToeBase
                {
                    OFFSET	 0.00	0.00	 1.51507020887566
                    CHANNELS 3 Zrotation Xrotation Yrotation
                    End Site 
                    {
                        OFFSET	 0.00	0.00	 0.749999965609858
                    }
                }   
			}
		}
	}
}
MOTION 
Frames:	15 
Frame Time: 0.02 
 0.08475339889526368 17.96760009765625 9.267680053710938 30.3154 85.7744 -37.2498 1.47751 -12.0188 0.64332 -6.34173 19.6602 2.63131 12.9335 47.1427 356.614 -61.8967 -86.7204 -55.8391 -116.8897 -3.41634 366.12 -44.4625 8.43835 25.7586 0.0 20.2997 0.0 9.61821 -15.0009 -5.36371 0.0 0.0 0.0 0.0 0.0 0.0 121.4339 -3.14816 -362.554 44.089 7.62945 -360.85 0.0 17.1427 0.0 4.96701 -11.1525 21.1834 0.0 0.0 0.0 0.0 0.0 0.0 -5.48317 0.15371 -367.637 0.0 19.161 0.0 -16.3741 -9.4456005 13.8879 0.0 -19.74821 0.0 3.99574 -3.78791 21.1587 0.0 24.996 0.0 33.3519 -12.2967 -3.09269 0.0 -16.26663 0.0 
  0.08153510093688965 17.97510009765625 9.266510009765625 30.522 85.8302 -37.3027 1.3619 -11.9531 0.53913 -6.21113 19.4238 2.57547 13.2156 47.3791 356.325 -61.197 -86.6828 -55.1554 -116.8738 -3.46477 366.277 -44.5169 8.40993 25.5505 0.0 20.3444 0.0 9.56393 -15.0521 -5.626 0.0 0.0 0.0 0.0 0.0 0.0 121.4692 -3.301 -362.722 44.2215 7.36743 -360.731 0.0 17.5779 0.0 4.89489 -11.0179 21.2579 0.0 0.0 0.0 0.0 0.0 0.0 -5.42485 -0.235628 -367.291 0.0 19.7237 0.0 -16.0436 -9.406099 13.6798 0.0 -19.70386 0.0 4.05811 -3.93252 21.0965 0.0 25.1639 0.0 33.5618 -12.455 -2.91761 0.0 -16.25623 0.0 
  0.08053640365600585 17.979100341796876 9.2660302734375 31.6415 85.8936 -38.3016 1.29533 -12.0308 0.473305 -6.17742 19.3359 2.53465 13.3916 47.4984 356.118 -60.3032 -86.625 -54.272 -116.8449 -3.51655 366.327 -44.5816 8.33391 25.3962 0.0 20.4306 0.0 9.4947 -15.1723 -6.25455 0.0 0.0 0.0 0.0 0.0 0.0 121.5255 -3.43502 -362.677 44.3725 7.04025 -360.602 0.0 17.9009 0.0 5.09567 -10.9392 20.6921 0.0 0.0 0.0 0.0 0.0 0.0 -5.4336 -0.403618 -367.364 0.0 19.797 0.0 -16.1699 -9.414499 13.562 0.0 -19.72269 0.0 4.06364 -4.09122 21.1099 0.0 25.3186 0.0 33.93 -12.6999 -2.66488 0.0 -16.29658 0.0 
  0.08111740112304687 17.9806005859375 9.266799926757812 32.6723 85.8602 -39.3013 1.23499 -12.1117 0.460626 -6.1945 19.3372 2.55209 13.6193 47.658 355.835 -60.3244 -86.571 -54.2498 -116.8145 -3.52747 366.386 -44.6283 8.24164 25.3846 0.0 20.5517 0.0 9.5873 -15.2374 -6.35875 0.0 0.0 0.0 0.0 0.0 0.0 121.571396 -3.60895 -362.539 44.529 6.72055 -360.872 0.0 18.0477 0.0 4.99762 -10.5095 21.0775 0.0 0.0 0.0 0.0 0.0 0.0 -5.50252 -0.242414 -367.687 0.0 19.4131 0.0 -16.42 -9.377399 13.6164 0.0 -19.8096 0.0 3.98397 -4.16883 21.0905 0.0 25.5047 0.0 34.5146 -13.063999 -2.11809 0.0 -16.51133 0.0 
  0.08016819953918457 17.9827001953125 9.266519775390625 33.0982 85.8593 -39.7187 1.17829 -12.1468 0.426036 -6.13654 19.2369 2.54754 13.779 47.9038 355.61 -59.9289 -86.4583 -53.8194 -116.7799 -3.52825 366.439 -44.6991 8.10027 25.3366 0.0 20.6465 0.0 9.52729 -15.4019 -7.02516 0.0 0.0 0.0 0.0 0.0 0.0 121.5837 -3.71085 -362.482 44.7042 6.40357 -360.703 0.0 18.2744 0.0 5.19598 -10.7612 20.8533 0.0 0.0 0.0 0.0 0.0 0.0 -5.50144 -0.286636 -367.633 0.0 19.4489 0.0 -16.548 -9.410101 13.4653 0.0 -19.77166 0.0 3.97334 -4.24876 21.0952 0.0 25.7284 0.0 35.23 -13.608 -1.46517 0.0 -16.65968 0.0 
  0.07931869983673095 17.984200439453126 9.2668701171875 33.8702 85.9009 -40.5059 1.12589 -12.2023 0.397006 -6.06352 19.0887 2.54371 13.9363 48.1964 355.398 -59.9965 -86.3592 -53.8393 -116.8069 -3.54858 366.521 -44.7103 8.00297 25.2561 0.0 20.6791 0.0 9.48036 -15.4677 -7.27885 0.0 0.0 0.0 0.0 0.0 0.0 121.5757 -3.87699 -362.361 44.8771 6.1255 -361.04 0.0 18.1861 0.0 5.0702 -10.3045 21.0207 0.0 0.0 0.0 0.0 0.0 0.0 -5.45867 -0.366767 -367.32 0.0 19.4398 0.0 -16.6286 -9.3234005 13.1399 0.0 -19.907421 0.0 3.95324 -4.39485 21.0118 0.0 25.9822 0.0 35.7281 -14.1977005 -0.853089 0.0 -16.7019 0.0 
  0.07833049774169921 17.984200439453126 9.2664501953125 34.8798 85.9803 -41.5444 1.08994 -12.2816 0.362879 -5.98584 18.8691 2.51287 14.1807 48.5335 355.084 -59.6478 -86.239 -53.3745 -116.7954 -3.6427 366.467 -44.7805 7.84999 25.3333 0.0 20.6562 0.0 9.36019 -15.5345 -7.36276 0.0 0.0 0.0 0.0 0.0 0.0 121.5405 -3.94781 -362.281 45.0524 5.77684 -360.893 0.0 18.2313 0.0 5.34685 -10.7216 20.6847 0.0 0.0 0.0 0.0 0.0 0.0 -5.44429 -0.481333 -367.276 0.0 19.4662 0.0 -16.6166 -9.3167 13.0785 0.0 -19.9658 0.0 3.94198 -4.56604 20.9269 0.0 26.2156 0.0 36.1594 -14.770901 -0.325691 0.0 -16.78279 0.0 
  0.07763969898223877 17.979100341796876 9.2672900390625 36.73 86.1326 -43.2667 1.0697 -12.5923 0.2774 -5.92127 18.7397 2.43086 14.5864 48.909 354.592 -60.8432 -86.1571 -54.6131 -116.7759 -3.60097 366.5 -44.8336 7.65856 25.3885 0.0 20.5861 0.0 9.26164 -15.6273 -7.6536 0.0 0.0 0.0 0.0 0.0 0.0 121.4526 -4.04412 -362.103 45.2852 5.39512 -361.136 0.0 17.9665 0.0 5.33382 -10.6974 20.762 0.0 0.0 0.0 0.0 0.0 0.0 -5.40554 -0.718783 -367.148 0.0 19.5839 0.0 -16.5437 -9.244101 12.8821 0.0 -19.97396 0.0 3.88175 -4.70813 20.5418 0.0 26.2712 0.0 36.3482 -15.312201 0.118925 0.0 -16.73252 0.0 
  0.07544310092926025 17.96469970703125 9.269140014648437 36.5992 86.2162 -42.7606 1.02048 -12.9731 0.0388581 -5.79578 18.8761 2.26016 14.8703 49.1516 354.223 -59.5039 -86.0128 -53.169 -116.7552 -3.65256 366.504 -44.9027 7.60797 25.4543 0.0 20.4806 0.0 9.16869 -15.9408 -8.33946 0.0 0.0 0.0 0.0 0.0 0.0 121.3643 -4.16872 -361.957 45.4711 5.08782 -361.279 0.0 17.7498 0.0 5.45402 -10.7137 20.8848 0.0 0.0 0.0 0.0 0.0 0.0 -5.33853 -0.739836 -367.393 0.0 19.654 0.0 -16.4117 -9.222401 12.8512 0.0 -19.94545 0.0 3.83448 -4.47502 19.9786 0.0 26.0108 0.0 36.3915 -15.8249 0.410926 0.0 -16.81826 0.0 
  0.07389750003814698 17.9527001953125 9.270269775390625 36.216 86.2297 -42.2455 1.02422 -13.1805 -0.0285305 -5.75399 18.8291 2.1895 15.0543 49.6004 354.029 -59.6615 -85.9174 -53.3277 -116.7531 -3.64104 366.556 -44.9114 7.50292 25.5668 0.0 20.3597 0.0 9.05155 -16.0556 -8.5201 0.0 0.0 0.0 0.0 0.0 0.0 121.3571 -4.23418 -361.938 45.5462 4.82999 -361.314 0.0 17.2643 0.0 5.62921 -10.4163 20.3952 0.0 0.0 0.0 0.0 0.0 0.0 -5.28293 -0.62289 -367.36 0.0 19.565 0.0 -16.3663 -9.1889 12.7374 0.0 -19.94382 0.0 3.83121 -4.30177 19.788 0.0 25.9522 0.0 36.2001 -16.3538 0.511529 0.0 -16.65144 0.0 
  0.07215610027313232 17.939000244140626 9.270900268554687 35.7298 86.2131 -41.6891 1.03124 -13.4002 -0.0611671 -5.72341 18.8418 2.16476 15.2935 49.9743 353.758 -59.1697 -85.8008 -52.8661 -116.7633 -3.64312 366.501 -44.9188 7.3927 25.7171 0.0 20.23 0.0 8.92341 -16.0383 -8.46665 0.0 0.0 0.0 0.0 0.0 0.0 121.3389 -4.30884 -361.894 45.6329 4.57862 -361.39 0.0 16.9637 0.0 5.79486 -10.3606 19.4597 0.0 0.0 0.0 0.0 0.0 0.0 -5.25213 -0.442515 -367.356 0.0 19.4375 0.0 -16.3064 -9.1756 12.7171 0.0 -19.99602 0.0 3.85268 -4.11755 19.8067 0.0 25.9354 0.0 36.1225 -16.8337 0.551943 0.0 -16.88498 0.0 
  0.07095280170440674 17.925699462890623 9.270170288085938 35.5425 86.2005 -41.3995 1.04306 -13.5168 -0.0718497 -5.73379 18.6423 2.10706 15.8516 50.4513 353.166 -58.4665 -85.7054 -52.1079 -116.7426 -3.67049 366.546 -44.9333 7.32117 25.7339 0.0 20.0958 0.0 8.82041 -16.1335 -8.4813 0.0 0.0 0.0 0.0 0.0 0.0 121.2782 -4.443 -361.886 45.7875 4.31592 -361.374 0.0 16.6197 0.0 5.61562 -10.958 20.1714 0.0 0.0 0.0 0.0 0.0 0.0 -5.25416 -0.328681 -367.482 0.0 19.4079 0.0 -16.2383 -9.2206 12.7618 0.0 -19.97331 0.0 3.92439 -4.00709 20.0311 0.0 26.086 0.0 35.7494 -17.453201 0.238507 0.0 -16.83008 0.0 
  0.06944220066070557 17.91030029296875 9.269829711914063 36.8836 86.3324 -42.6554 1.09168 -13.8579 -0.0504678 -5.76354 18.5287 2.07681 16.594 50.8597 352.357 -57.8371 -85.6271 -51.4052 -116.7255 -3.70043 366.591 -44.9336 7.27292 25.7463 0.0 20.0548 0.0 8.86619 -16.175 -7.83183 0.0 0.0 0.0 0.0 0.0 0.0 121.2442 -4.49385 -361.715 45.9036 3.87667 -361.29 0.0 16.3136 0.0 5.80946 -11.1494 20.126 0.0 0.0 0.0 0.0 0.0 0.0 -5.23871 -0.38626 -367.628 0.0 19.4072 0.0 -16.2599 -9.3062 12.7753 0.0 -19.91957 0.0 3.95513 -4.04197 19.9553 0.0 26.1253 0.0 35.4837 -17.849098 0.120842 0.0 -16.91224 0.0 
  0.06677309989929199 17.8943994140625 9.268809814453125 35.8103 86.2312 -41.5164 1.06141 -13.8763 -0.0749985 -5.76096 18.3263 2.03266 17.1055 51.4736 351.876 -57.6545 -85.5564 -51.2409 -116.6863 -3.83087 366.549 -44.9799 7.19424 25.7487 0.0 19.9359 0.0 8.98222 -15.9012 -7.89464 0.0 0.0 0.0 0.0 0.0 0.0 121.125 -4.59798 -361.666 46.0903 3.55797 -361.425 0.0 15.9161 0.0 5.9056 -11.0867 19.9233 0.0 0.0 0.0 0.0 0.0 0.0 -5.25192 -0.161356 -367.739 0.0 19.4071 0.0 -16.2869 -9.3792 12.7777 0.0 -19.92499 0.0 4.00164 -3.83555 19.9994 0.0 26.253 0.0 35.2353 -18.282001 -0.0824269 0.0 -17.06996 0.0 
  0.06441760063171387 17.87699951171875 9.267789916992188 36.2416 86.249 -41.8325 1.04989 -14.0762 -0.0855148 -5.78403 18.1858 1.99914 17.85 52.0394 351.125 -57.1237 -85.4826 -50.7189 -116.6635 -3.92278 366.543 -44.9752 7.13066 25.7021 0.0 19.9923 0.0 9.04248 -15.8344 -6.87852 0.0 0.0 0.0 0.0 0.0 0.0 120.951996 -4.75383 -361.556 46.3615 3.18989 -361.621 0.0 15.7565 0.0 5.91357 -11.2824 20.1706 0.0 0.0 0.0 0.0 0.0 0.0 -5.26319 -0.135161 -367.805 0.0 19.51 0.0 -16.2755 -9.465401 12.7369 0.0 -19.89494 0.0 4.05055 -3.73772 20.0603 0.0 26.3259 0.0 34.8301 -18.7667 -0.452892 0.0 -17.00935 0.0 
